<svg width="100" height="100" viewBox="0 0 100 100" fill="none" xmlns="http://www.w3.org/2000/svg">
<g clip-path="url(#clip0_10106_10099)">
<path d="M89.9753 18.3108H11.9684C10.916 18.3114 9.90684 18.7298 9.16268 19.474C8.41852 20.2181 8.00016 21.2272 7.99951 22.2796V93.8518C8.00016 94.9042 8.41852 95.9133 9.16268 96.6574C9.90684 97.4016 10.916 97.82 11.9684 97.8206H89.9753C91.0278 97.8201 92.037 97.4018 92.7813 96.6576C93.5255 95.9134 93.9439 94.9042 93.9446 93.8518V22.2796C93.9439 21.2272 93.5255 20.218 92.7813 19.4738C92.037 18.7296 91.0278 18.3113 89.9753 18.3108Z" fill="#C6C6C6"/>
<path d="M84.8402 72.9498H17.1046C14.9128 72.9498 13.1357 71.1728 13.1357 68.981V5.74327C13.1357 3.55146 14.9128 1.77441 17.1046 1.77441H84.8402C87.0321 1.77441 88.8091 3.55146 88.8091 5.74327V68.981C88.8091 71.1728 87.0321 72.9498 84.8402 72.9498Z" fill="#F9F9F9"/>
<path d="M14.3923 70.2371V6.99982C14.3923 4.80802 16.1693 3.03097 18.3612 3.03097H86.0968C86.871 3.03097 87.5907 3.25597 88.2009 3.63917C87.4993 2.52032 86.2583 1.77441 84.8403 1.77441H17.1046C14.9128 1.77441 13.1357 3.55146 13.1357 5.74327V68.981C13.1357 70.3994 13.8816 71.64 15.0005 72.342C14.6173 71.7314 14.3923 71.0117 14.3923 70.2375V70.2371Z" fill="url(#paint0_linear_10106_10099)"/>
<path d="M76.5063 15.1355H25.4395V18.0457H76.5063V15.1355ZM76.5063 26.2478H25.4395V29.158H76.5063V26.2478ZM76.5063 37.3625H25.4395V40.2728H76.5063V37.3625ZM76.5063 48.4748H25.4395V51.3855H76.5063V48.4748Z" fill="white"/>
<path d="M31.5244 39.0815L44.3568 51.9143H31.5244V39.0815Z" fill="url(#paint1_linear_10106_10099)"/>
<path d="M93.9452 52.9727V23.4469L88.8096 18.3108V52.9723H93.9452V52.9727Z" fill="#C6C6C6"/>
<path d="M99.9602 55.6433L94.427 94.8121C94.1504 96.7703 92.4745 98.2257 90.4971 98.2257H11.4471C9.46963 98.2257 7.79381 96.7703 7.51717 94.8121L0.0397149 41.8855C-0.29758 39.4962 1.55652 37.3613 3.96963 37.3613H28.3819C30.3594 37.3613 32.0352 38.8167 32.3118 40.7744L33.2918 47.7056C33.5684 49.6638 35.2442 51.1191 37.2217 51.1191H96.0311C98.4434 51.1191 100.298 53.254 99.9606 55.6433H99.9602Z" fill="url(#paint2_linear_10106_10099)"/>
<path d="M80.3555 80.7549H21.5895C21.2674 80.7548 20.9564 80.6372 20.7147 80.4242C20.4731 80.2112 20.3174 79.9175 20.2768 79.5979L19.5415 73.7766C19.5182 73.5904 19.5347 73.4013 19.59 73.222C19.6452 73.0426 19.738 72.8771 19.8622 72.7363C19.9863 72.5955 20.139 72.4828 20.31 72.4055C20.481 72.3282 20.6666 72.2882 20.8542 72.2881H81.0907C81.2784 72.2882 81.4639 72.3282 81.635 72.4055C81.806 72.4828 81.9587 72.5955 82.0828 72.7363C82.2069 72.8771 82.2997 73.0426 82.355 73.222C82.4103 73.4013 82.4268 73.5904 82.4034 73.7766L81.6682 79.5979C81.6276 79.9175 81.4719 80.2112 81.2302 80.4242C80.9886 80.6372 80.6776 80.7548 80.3555 80.7549Z" fill="#D5D5D5"/>
</g>
<defs>
<linearGradient id="paint0_linear_10106_10099" x1="53.2997" y1="39.6851" x2="3.10706" y2="-10.508" gradientUnits="userSpaceOnUse">
<stop stop-color="white"/>
</linearGradient>
<linearGradient id="paint1_linear_10106_10099" x1="40.0027" y1="53.9733" x2="24.4916" y2="38.4627" gradientUnits="userSpaceOnUse">
<stop stop-color="#C2CECE" stop-opacity="0"/>
<stop offset="0.179" stop-color="#AFBCBC" stop-opacity="0.179"/>
<stop offset="1" stop-color="#5B6A6A"/>
</linearGradient>
<linearGradient id="paint2_linear_10106_10099" x1="50" y1="37.3613" x2="50" y2="98.2257" gradientUnits="userSpaceOnUse">
<stop stop-color="#EEF0F4"/>
<stop offset="0.927" stop-color="#E4E4E4"/>
</linearGradient>
<clipPath id="clip0_10106_10099">
<rect width="100" height="100" fill="white"/>
</clipPath>
</defs>
</svg>
