<svg width="250" height="28" viewBox="0 0 250 28" fill="none" xmlns="http://www.w3.org/2000/svg">
<path fill-rule="evenodd" clip-rule="evenodd" d="M99.8752 16.9189V10.81H104.039V7.40365H99.8054V3.31369H99.0123L92.953 9.89456V10.81H95.7271V17.4811C95.7271 20.959 97.801 23.078 101.177 23.078H104.124V19.3043L102.239 19.304C100.728 19.304 99.8752 18.4329 99.8752 16.9189ZM12.1244 15.2274C12.1244 17.7655 10.5047 19.3724 8.21884 19.3724C5.92791 19.3724 4.30851 17.7655 4.30851 15.2274V1.75341H0V15.4305C0 20.1934 3.51543 23.5205 8.21884 23.5205C12.9175 23.5205 16.4326 20.1934 16.4326 15.4305V1.75341H12.1244V15.2274ZM20.2654 23.0774H24.4135V1.75323H20.2654V23.0774ZM33.5295 16.9189V10.81H37.6934V7.40365H33.4598V3.31369H32.6667L26.6073 9.89456V10.81H29.3815V17.4811C29.3815 20.959 31.4554 23.078 34.8313 23.078H37.7788V19.3043L35.8929 19.304C34.3819 19.304 33.5295 18.4329 33.5295 16.9189ZM40.6182 5.31282H44.751V1.37305H40.6182V5.31282ZM40.6107 23.0774H44.7588V7.40306H40.6107V23.0774ZM66.1931 7.03163C64.2402 7.03163 62.4921 8.0165 61.4436 9.53906C60.5544 7.96358 58.9416 7.03132 56.9905 7.03132C55.1837 7.03132 53.5029 7.94278 52.4137 9.34637V7.40325H48.7384V23.0776H52.8865V14.5995C52.8865 12.1456 54.0074 10.7521 55.8827 10.7521C57.3674 10.7521 58.1476 11.8553 58.1476 13.9474V23.0776H62.1921V14.5995C62.1921 12.1456 63.2899 10.7521 65.1417 10.7521C66.6449 10.7521 67.4479 11.8553 67.4479 13.9474V23.0776H71.5965V13.2482C71.5965 9.57516 69.3675 7.03163 66.1931 7.03163ZM82.7694 19.5126C80.3593 19.5126 78.5875 17.6734 78.5875 15.2168C78.5875 12.7598 80.3593 10.921 82.7694 10.921C85.1795 10.921 86.9459 12.7546 86.9459 15.2168C86.9459 17.6789 85.1795 19.5126 82.7694 19.5126ZM87.4719 8.87721C86.1456 7.66907 84.4005 6.95948 82.4314 6.95948C77.8157 6.95948 74.3829 10.4906 74.3829 15.2168C74.3829 19.9613 77.8157 23.5212 82.4314 23.5212C84.3669 23.5212 86.0857 22.8302 87.4033 21.652V23.0777H91.0119V7.37942H87.4719V8.87721ZM110.383 13.5328C110.865 11.678 112.176 10.5772 114.023 10.5772C115.885 10.5772 117.232 11.6166 117.819 13.5328H110.383ZM114.023 6.95954C109.47 6.95954 106.066 10.5191 106.066 15.2404C106.066 19.9375 109.493 23.5206 114.023 23.5206C117.585 23.5206 120.522 21.3438 121.638 17.9264H117.278C116.648 19.0477 115.464 19.7448 114.023 19.7448C112.011 19.7448 110.635 18.5666 110.274 16.4274H121.886C121.938 16.0133 121.966 15.5991 121.966 15.1847C121.966 10.6696 118.735 6.95954 114.023 6.95954ZM132.175 19.0432H128.355V14.4859H132.175C133.591 14.4859 134.524 15.4463 134.524 16.7526C134.524 18.0877 133.591 19.0432 132.175 19.0432ZM128.355 6.50359H131.94C133.291 6.50359 134.157 7.39548 134.157 8.67C134.157 9.93931 133.297 10.8364 131.94 10.8364H128.355V6.50359ZM136.089 12.3614C137.49 11.3591 138.33 9.7301 138.33 7.98395C138.33 4.99418 135.781 2.75896 132.351 2.75896H124.127V23.0778H132.581C136.037 23.0778 138.842 20.4731 138.842 17.2145C138.842 15.0658 137.845 13.3022 136.089 12.3614ZM149.511 19.5362C147.119 19.5362 145.422 17.7787 145.422 15.2404C145.422 12.7018 147.119 10.944 149.511 10.944C151.903 10.944 153.6 12.7018 153.6 15.2404C153.6 17.7787 151.903 19.5362 149.511 19.5362ZM149.511 6.95957C144.758 6.95957 141.217 10.4852 141.217 15.2404C141.217 19.9665 144.758 23.5206 149.511 23.5206C154.241 23.5206 157.805 19.9665 157.805 15.2404C157.805 10.4901 154.241 6.95957 149.511 6.95957ZM168.657 7.40316L165.813 11.6974L162.969 7.40316H158.276L163.467 15.2405L158.276 23.0775H162.969L165.813 18.7836L168.657 23.0775H173.35L168.159 15.2405L173.35 7.40316H168.657ZM185.142 25.6268H185.741V2.30959H185.142V25.6268ZM221.305 17.1107V25.3518L207.614 25.457V17.1107H221.305ZM203.764 1.64633V5.96293L205.229 5.33683C205.994 7.04506 206.934 9.2971 207.324 10.6441L204.989 11.7608C204.748 10.8206 204.274 9.43045 203.764 8.08406V25.4541H200.635V1.64633H203.764ZM218.134 19.9828H210.631V22.618H218.134V19.9828ZM222.226 1.75919V4.55995H214.669C214.564 5.22244 214.453 5.90175 214.338 6.58321L220.746 6.60492C220.693 8.53367 220.546 10.5282 220.375 12.2961H222.964V15.1616H206.249V12.2961H210.044C210.231 11.4164 210.423 10.426 210.609 9.38977H207.411V6.58321H211.08C211.187 5.89961 211.288 5.22061 211.38 4.55995H206.814V1.75919H222.226ZM217.426 9.38977H213.844C213.653 10.4309 213.46 11.421 213.278 12.2961H217.202C217.289 11.3399 217.365 10.3269 217.426 9.38977ZM196.771 13.5124L199.301 14.4346C199.941 12.3 200.416 8.97038 200.515 6.5544L198.077 6.2204C197.886 8.54615 197.412 11.6561 196.771 13.5124ZM249.328 1.64615V4.8433H229.293V22.2975H250V25.4885H226.043V1.64615H249.328ZM247.562 6.28729V18.1837H240.838V21.7023H237.729V18.1837H231.072V6.28729H247.562ZM237.729 13.505H234.089V15.6001H237.729V13.505ZM244.396 13.505H240.838V15.6001H244.396V13.505ZM237.729 8.87119H234.089V11.1535H237.729V8.87119ZM244.396 8.87119H240.838V11.1535H244.396V8.87119Z" fill="#1D2129"/>
</svg>
