<svg width="20" height="20" viewBox="0 0 20 20" fill="none" xmlns="http://www.w3.org/2000/svg">
<path d="M3.82353 13.0833V14.8333C3.82353 15.7559 4.52343 16.5117 5.41117 16.5784L5.53922 16.5833H8.11274V18.3333H5.53922C3.64412 18.3333 2.10784 16.7662 2.10784 14.8333V13.0833H3.82353ZM14.9755 8.70825L18.75 18.3333H16.9013L15.8711 15.7083H12.3625L11.3339 18.3333H9.48615L13.2598 8.70825H14.9755ZM14.1176 11.2328L13.0479 13.9583H15.1857L14.1176 11.2328ZM6.39706 1.70825V3.45825H9.82843V9.58325H6.39706V12.2083H4.68137V9.58325H1.25V3.45825H4.68137V1.70825H6.39706ZM14.1176 2.58325C16.0127 2.58325 17.549 4.15025 17.549 6.08325V7.83325H15.8333V6.08325C15.8333 5.11675 15.0652 4.33325 14.1176 4.33325H11.5441V2.58325H14.1176ZM4.68137 5.20825H2.96569V7.83325H4.68137V5.20825ZM8.11274 5.20825H6.39706V7.83325H8.11274V5.20825Z" fill="#1D2129"/>
</svg>
